<?xml version="1.0" encoding="utf-8"?>
<!-- Generator: Adobe Illustrator 27.5.0, SVG Export Plug-In . SVG Version: 6.00 Build 0)  -->
<svg version="1.1" id="Layer_1" xmlns="http://www.w3.org/2000/svg" xmlns:xlink="http://www.w3.org/1999/xlink" x="0px" y="0px"
	 viewBox="0 0 99.15 214.43" style="enable-background:new 0 0 99.15 214.43;" xml:space="preserve">
<style type="text/css">
	.st0{display:none;}
	.st1{display:inline;opacity:0;fill:#FFFFFF;}
	.st2{display:inline;opacity:0.0258;fill:#FBFCFC;}
	.st3{display:inline;opacity:0.0516;fill:#F7F9FA;}
	.st4{display:inline;opacity:0.0774;fill:#F3F6F7;}
	.st5{display:inline;opacity:0.1032;fill:#EFF3F5;}
	.st6{display:inline;opacity:0.129;fill:#EBF0F2;}
	.st7{display:inline;opacity:0.1548;fill:#E8EDF0;}
	.st8{display:inline;opacity:0.1806;fill:#E4EAED;}
	.st9{display:inline;opacity:0.2065;fill:#E0E7EB;}
	.st10{display:inline;opacity:0.2323;fill:#DCE4E8;}
	.st11{display:inline;opacity:0.2581;fill:#D8E1E6;}
	.st12{display:inline;opacity:0.2839;fill:#D4DEE3;}
	.st13{display:inline;opacity:0.3097;fill:#D0DBE0;}
	.st14{display:inline;opacity:0.3355;fill:#CCD8DE;}
	.st15{display:inline;opacity:0.3613;fill:#C8D5DB;}
	.st16{display:inline;opacity:0.3871;fill:#C4D2D9;}
	.st17{display:inline;opacity:0.4129;fill:#C1CFD6;}
	.st18{display:inline;opacity:0.4387;fill:#BDCCD4;}
	.st19{display:inline;opacity:0.4645;fill:#B9C9D1;}
	.st20{display:inline;opacity:0.4903;fill:#B5C6CF;}
	.st21{display:inline;opacity:0.5161;fill:#B1C3CC;}
	.st22{display:inline;opacity:0.5419;fill:#ADC0C9;}
	.st23{display:inline;opacity:0.5677;fill:#A9BDC7;}
	.st24{display:inline;opacity:0.5935;fill:#A5BAC4;}
	.st25{display:inline;opacity:0.6194;fill:#A1B7C2;}
	.st26{display:inline;opacity:0.6452;fill:#9DB4BF;}
	.st27{display:inline;opacity:0.671;fill:#9AB1BD;}
	.st28{display:inline;opacity:0.6968;fill:#96AEBA;}
	.st29{display:inline;opacity:0.7226;fill:#92ABB8;}
	.st30{display:inline;opacity:0.7484;fill:#8EA8B5;}
	.st31{display:inline;opacity:0.7742;fill:#8AA5B3;}
	.st32{display:inline;opacity:0.8;fill:#86A2B0;}
	.st33{fill:#BEE9F7;}
	.st34{fill:url(#SVGID_1_);}
	.st35{display:inline;}
	.st36{display:inline;clip-path:url(#SVGID_00000126282164747996836210000015464686845232553374_);}
	.st37{opacity:0;fill:#FFFFFF;}
	.st38{opacity:0.0476;fill:#F9FBFB;}
	.st39{opacity:0.0952;fill:#F4F6F8;}
	.st40{opacity:0.1429;fill:#EEF2F4;}
	.st41{opacity:0.1905;fill:#E9EDF1;}
	.st42{opacity:0.2381;fill:#E3E9ED;}
	.st43{opacity:0.2857;fill:#DEE5EA;}
	.st44{opacity:0.3333;fill:#D8E0E6;}
	.st45{opacity:0.381;fill:#D3DCE3;}
	.st46{opacity:0.4286;fill:#CDD8DF;}
	.st47{opacity:0.4762;fill:#C8D3DC;}
	.st48{opacity:0.5238;fill:#C2CFD8;}
	.st49{opacity:0.5714;fill:#BDCAD5;}
	.st50{opacity:0.619;fill:#B7C6D1;}
	.st51{opacity:0.6667;fill:#B2C2CE;}
	.st52{opacity:0.7143;fill:#ACBDCA;}
	.st53{opacity:0.7619;fill:#A7B9C7;}
	.st54{opacity:0.8095;fill:#A1B5C3;}
	.st55{opacity:0.8571;fill:#9CB0C0;}
	.st56{opacity:0.9048;fill:#96ACBC;}
	.st57{opacity:0.9524;fill:#91A7B9;}
	.st58{fill:#8BA3B5;}
	.st59{display:none;fill:#FFFFFF;}
	.st60{fill:#E4F1F5;}
	.st61{fill:#0A4D80;}
	.st62{display:inline;fill:#BEE9F7;}
	.st63{display:inline;fill:url(#SVGID_00000147913634545017983870000005763185732150716080_);}
	.st64{display:inline;clip-path:url(#SVGID_00000044173236579566915150000002469243526141793157_);}
	.st65{fill:#FFFFFF;}
	.st66{display:inline;fill:#E4F1F5;}
</style>
<g>
	<g class="st0">
		<path class="st1" d="M25.55,165.16C24.59,142.47,41.24,5.69,63.23,5.69c26.98,0,44.88,66.24,50.24,83.22
			c7.52,23.81,21.89,26.21,33.03,38.42c18.14,19.87,37.21,60.72,14.87,91.89c-20.65,28.81-71.91,36.6-111.48,10.69
			C14.39,206.65,26.09,178.35,25.55,165.16z"/>
		<path class="st2" d="M63.26,6.91c26.41,0,43.55,65.95,49.01,82.8c7.57,23.36,21.71,25.91,32.65,37.98
			c17.8,19.65,36.34,59.69,14.57,90.35C139.4,246.3,89.25,254.48,50.34,229.3c-35.09-22.64-23.88-50.67-24.4-63.64
			C25.02,143.36,41.78,6.91,63.26,6.91z"/>
		<path class="st3" d="M63.29,8.13c25.84,0,42.22,65.67,47.78,82.39c7.62,22.91,21.54,25.61,32.27,37.55
			c17.47,19.42,35.46,58.66,14.26,88.81c-19.54,27.69-68.57,36.25-106.83,11.8c-34.67-22.01-23.95-49.79-24.45-62.53
			C25.44,144.26,42.31,8.13,63.29,8.13z"/>
		<path class="st4" d="M63.32,9.35c25.27,0,40.88,65.38,46.55,81.97c7.67,22.45,21.37,25.31,31.89,37.11
			c17.13,19.2,34.59,57.63,13.95,87.27c-18.99,27.12-66.84,35.99-104.5,12.35c-34.21-21.47-24.02-48.9-24.5-61.42
			C25.86,145.15,42.85,9.35,63.32,9.35z"/>
		<path class="st5" d="M63.35,10.57c24.7,0,39.55,65.09,45.32,81.56c7.71,22,21.2,25.01,31.52,36.68
			c16.79,18.98,33.71,56.6,13.65,85.74c-18.43,26.56-65.16,35.78-102.17,12.91c-33.77-20.87-24.08-48.02-24.55-60.3
			C26.28,146.04,43.38,10.57,63.35,10.57z"/>
		<path class="st6" d="M63.38,11.79c24.13,0,38.21,64.8,44.09,81.14c7.76,21.55,21.02,24.71,31.14,36.24
			c16.46,18.76,32.9,55.62,13.34,84.2c-17.82,26.04-63.47,35.58-99.85,13.46c-33.34-20.27-24.15-47.13-24.6-59.19
			C26.7,146.93,43.92,11.79,63.38,11.79z"/>
		<path class="st7" d="M63.41,13.01c23.56,0,36.87,64.52,42.86,80.73c7.8,21.1,20.85,24.41,30.76,35.8
			c16.12,18.53,32.04,54.59,13.03,82.66c-17.26,25.48-61.79,35.37-97.52,14.02c-32.91-19.67-24.22-46.25-24.65-58.08
			C27.13,147.82,44.45,13.01,63.41,13.01z"/>
		<path class="st8" d="M63.44,14.23c22.99,0,35.53,64.23,41.63,80.31c7.83,20.65,20.68,24.11,30.38,35.37
			c15.78,18.31,31.18,53.57,12.73,81.12c-16.69,24.92-60.11,35.17-95.2,14.57c-32.48-19.07-24.29-45.36-24.7-56.96
			C27.55,148.72,44.99,14.23,63.44,14.23z"/>
		<path class="st9" d="M63.47,15.44c22.42,0,34.19,63.94,40.4,79.9c7.86,20.2,20.51,23.81,30,34.93
			c15.45,18.09,30.31,52.55,12.42,79.58c-16.13,24.36-58.42,34.97-92.87,15.12c-32.05-18.47-24.35-44.48-24.75-55.85
			C27.97,149.61,45.52,15.44,63.47,15.44z"/>
		<path class="st10" d="M63.5,16.66c21.85,0,32.84,63.65,39.17,79.48c7.89,19.75,20.33,23.51,29.63,34.49
			c15.11,17.87,29.45,51.53,12.11,78.04c-15.56,23.8-56.74,34.77-90.55,15.68c-31.63-17.87-24.42-43.59-24.8-54.74
			C28.39,150.5,46.06,16.66,63.5,16.66z"/>
		<path class="st11" d="M63.53,17.88c21.28,0,31.49,63.36,37.94,79.07c7.92,19.3,20.16,23.21,29.25,34.06
			c14.77,17.64,28.59,50.5,11.81,76.5c-15,23.25-55.07,34.58-88.22,16.23c-31.2-17.26-24.49-42.71-24.85-53.62
			C28.81,151.39,46.59,17.88,63.53,17.88z"/>
		<path class="st12" d="M63.56,19.1c20.71,0,30.15,63.08,36.71,78.65c7.94,18.85,19.99,22.9,28.87,33.62
			c14.44,17.42,27.72,49.48,11.5,74.96c-14.44,22.69-53.39,34.38-85.9,16.79c-30.78-16.66-24.56-41.82-24.9-52.51
			C29.23,152.28,47.13,19.1,63.56,19.1z"/>
		<path class="st13" d="M63.59,20.32c20.14,0,28.8,62.79,35.48,78.24c7.96,18.4,19.82,22.6,28.49,33.19
			c14.1,17.2,26.86,48.45,11.19,73.42c-13.88,22.13-51.71,34.19-83.57,17.34c-30.35-16.05-24.63-40.94-24.95-51.39
			C29.66,153.18,47.66,20.32,63.59,20.32z"/>
		<path class="st14" d="M63.62,21.54c19.57,0,27.44,62.51,34.25,77.83c7.98,17.96,19.64,22.3,28.11,32.75
			c13.76,16.98,25.99,47.43,10.89,71.89c-13.32,21.57-50.04,34-81.25,17.89c-29.93-15.45-24.69-40.05-25-50.28
			C30.08,154.07,48.2,21.54,63.62,21.54z"/>
		<path class="st15" d="M63.65,22.76c19,0,26.09,62.22,33.02,77.41c7.99,17.51,19.47,22,27.74,32.31
			c13.43,16.75,25.12,46.4,10.58,70.35c-12.76,21-48.37,33.81-78.92,18.45c-29.51-14.84-24.76-39.17-25.05-49.17
			C30.5,154.96,48.73,22.76,63.65,22.76z"/>
		<path class="st16" d="M63.68,23.98c18.43,0,24.73,61.94,31.79,77c8,17.07,19.3,21.7,27.36,31.88
			c13.09,16.53,24.26,45.37,10.27,68.81c-12.2,20.44-46.7,33.62-76.6,19c-29.09-14.22-24.83-38.28-25.1-48.05
			C30.92,155.85,49.27,23.98,63.68,23.98z"/>
		<path class="st17" d="M63.71,25.2c17.86,0,23.37,61.65,30.56,76.58c8,16.62,19.13,21.4,26.98,31.44
			c12.76,16.31,23.39,44.35,9.97,67.27c-11.64,19.88-45.03,33.44-74.27,19.56c-28.68-13.61-24.9-37.4-25.15-46.94
			C31.34,156.74,49.8,25.2,63.71,25.2z"/>
		<path class="st18" d="M63.74,26.42c17.29,0,22.01,61.37,29.33,76.17c8.01,16.18,18.96,21.1,26.6,31.01
			c12.42,16.09,22.52,43.32,9.66,65.73c-11.08,19.32-43.36,33.25-71.95,20.11c-28.26-13-24.96-36.51-25.2-45.83
			C31.77,157.64,50.34,26.42,63.74,26.42z"/>
		<path class="st19" d="M63.77,27.64c16.72,0,20.64,61.09,28.09,75.75c8.01,15.74,18.78,20.8,26.22,30.57
			c12.08,15.86,21.65,42.29,9.35,64.19c-10.52,18.75-41.7,33.07-69.62,20.66c-27.85-12.38-25.03-35.63-25.25-44.71
			C32.19,158.53,50.87,27.64,63.77,27.64z"/>
		<path class="st20" d="M63.8,28.85c16.15,0,19.27,60.81,26.86,75.34c8,15.31,18.61,20.5,25.84,30.13
			c11.75,15.64,20.78,41.26,9.05,62.65c-9.97,18.19-40.03,32.9-67.3,21.22c-27.44-11.76-25.1-34.74-25.3-43.6
			C32.61,159.42,51.4,28.85,63.8,28.85z"/>
		<path class="st21" d="M63.83,30.07c15.58,0,17.9,60.53,25.63,74.92c7.99,14.87,18.44,20.2,25.47,29.7
			c11.41,15.42,19.9,40.23,8.74,61.11c-9.42,17.62-38.37,32.73-64.97,21.77c-27.03-11.13-25.17-33.86-25.35-42.49
			C33.03,160.31,51.94,30.07,63.83,30.07z"/>
		<path class="st22" d="M63.86,31.29c15.01,0,16.52,60.26,24.4,74.51c7.98,14.43,18.27,19.89,25.09,29.26
			c11.07,15.2,19.03,39.19,8.43,59.58c-8.86,17.05-36.71,32.56-62.64,22.33c-26.62-10.5-25.23-32.97-25.4-41.37
			C33.45,161.2,52.47,31.29,63.86,31.29z"/>
		<path class="st23" d="M63.89,32.51c14.44,0,15.14,59.98,23.17,74.09c7.97,14,18.09,19.59,24.71,28.82
			c10.74,14.97,18.15,38.16,8.13,58.04c-8.31,16.49-35.05,32.39-60.32,22.88c-26.21-9.87-25.3-32.09-25.45-40.26
			C33.87,162.1,53.01,32.51,63.89,32.51z"/>
		<path class="st24" d="M63.92,33.73c13.87,0,13.76,59.71,21.94,73.68c7.95,13.57,17.92,19.29,24.33,28.39
			c10.4,14.75,17.27,37.12,7.82,56.5c-7.76,15.92-33.4,32.23-57.99,23.43c-25.8-9.23-25.37-31.2-25.5-39.15
			C34.3,162.99,53.54,33.73,63.92,33.73z"/>
		<path class="st25" d="M63.95,34.95c13.3,0,12.37,59.44,20.71,73.26c7.93,13.14,17.75,18.99,23.95,27.95
			c10.06,14.53,16.39,36.09,7.51,54.96c-7.22,15.35-31.74,32.08-55.67,23.99c-25.4-8.59-25.44-30.32-25.55-38.03
			C34.72,163.88,54.08,34.95,63.95,34.95z"/>
		<path class="st26" d="M63.98,36.17c12.73,0,10.98,59.18,19.48,72.85c7.91,12.72,17.58,18.69,23.58,27.52
			c9.73,14.31,15.5,35.05,7.21,53.42c-6.67,14.78-30.09,31.93-53.34,24.54c-25-7.94-25.5-29.43-25.59-36.92
			C35.14,164.77,54.61,36.17,63.98,36.17z"/>
		<path class="st27" d="M64.01,37.39c12.16,0,9.59,58.92,18.25,72.43c7.88,12.3,17.4,18.39,23.2,27.08
			c9.39,14.08,14.61,34.01,6.9,51.88c-6.13,14.2-28.43,31.79-51.02,25.1c-24.6-7.28-25.57-28.54-25.64-35.81
			C35.56,165.66,55.15,37.39,64.01,37.39z"/>
		<path class="st28" d="M64.04,38.61c11.59,0,8.19,58.66,17.02,72.02c7.86,11.88,17.23,18.09,22.82,26.64
			c9.05,13.86,13.72,32.97,6.59,50.34c-5.59,13.63-26.78,31.65-48.69,25.65c-24.2-6.62-25.64-27.66-25.69-34.69
			C35.98,166.56,55.68,38.61,64.04,38.61z"/>
		<path class="st29" d="M64.07,39.83c11.02,0,6.78,58.41,15.79,71.6c7.82,11.46,17.06,17.79,22.44,26.21
			c8.72,13.64,12.82,31.93,6.29,48.8c-5.06,13.06-25.13,31.52-46.37,26.2c-23.8-5.95-25.71-26.77-25.74-33.58
			C36.41,167.45,56.22,39.83,64.07,39.83z"/>
		<path class="st30" d="M64.1,41.05c10.45,0,5.37,58.16,14.56,71.19c7.79,11.05,16.89,17.49,22.06,25.77
			c8.38,13.42,11.92,30.89,5.98,47.26c-4.53,12.48-23.47,31.39-44.04,26.76c-23.4-5.27-25.77-25.89-25.79-32.47
			C36.83,168.34,56.75,41.05,64.1,41.05z"/>
		<path class="st31" d="M64.13,42.27c9.88,0,3.96,57.91,13.33,70.77c7.75,10.64,16.71,17.19,21.68,25.34
			c8.04,13.19,11.01,29.84,5.67,45.73c-4,11.91-21.82,31.27-41.72,27.31c-23-4.58-25.84-25-25.84-31.35
			C37.25,169.23,57.29,42.27,64.13,42.27z"/>
		<path class="st32" d="M64.16,43.48c9.31,0,2.54,57.68,12.1,70.36c7.72,10.23,16.54,16.89,21.31,24.9
			c7.71,12.97,10.09,28.8,5.37,44.19c-3.48,11.33-20.17,31.17-39.39,27.87c-22.6-3.87-25.91-24.12-25.89-30.24
			C37.67,170.12,57.82,43.48,64.16,43.48z"/>
	</g>
	<path class="st33" d="M49.9,153.99c-5.21,0-9.44-4.22-9.44-9.44V24.4c0-5.22,4.24-9.44,9.44-9.44s9.44,4.22,9.44,9.44v120.16
		C59.34,149.77,55.11,153.99,49.9,153.99z"/>
	<linearGradient id="SVGID_1_" gradientUnits="userSpaceOnUse" x1="39.4976" y1="119.1039" x2="83.6947" y2="159.6868">
		<stop  offset="0" style="stop-color:#FF1A1A"/>
		<stop  offset="0.9955" style="stop-color:#D40000"/>
	</linearGradient>
	<path class="st34" d="M59.34,126.24V51.62H40.46v74.62c-16.34,4.21-28.47,19.03-28.47,36.68c0,20.89,17.01,37.9,37.92,37.9
		s37.92-17.01,37.92-37.9C87.82,145.27,75.69,130.45,59.34,126.24z"/>
	<g class="st0">
		<defs>
			<path id="SVGID_00000169540207328260908100000006490014136906027419_" d="M59.34,126.24V76.66V24.4c0-5.22-4.24-9.44-9.44-9.44
				s-9.44,4.22-9.44,9.44v52.26v49.59c-16.34,4.21-28.47,19.03-28.47,36.68c0,20.89,17.01,37.9,37.92,37.9s37.92-17.01,37.92-37.9
				C87.82,145.27,75.69,130.45,59.34,126.24z"/>
		</defs>
		<clipPath id="SVGID_00000173859241287962640030000012639386065843280559_" class="st35">
			<use xlink:href="#SVGID_00000169540207328260908100000006490014136906027419_"  style="overflow:visible;"/>
		</clipPath>
		<g style="display:inline;clip-path:url(#SVGID_00000173859241287962640030000012639386065843280559_);">
			<path class="st37" d="M48.49,162.91c-5.28,11.88-1.84,27.03,0,35.38c4.18,18.89-23.68,18.46-34.33,12.51
				C-22.83,190.15-15,146.59-7.43,135.25c8.24-12.33,18.32-18.84,27.39-31.78c4.38-6.24,6.83-40.56,7.68-66.61
				c0.34-10.16-3.33-17.86,10-33.02c6.74-7.68,35.58-3.78,26.75,11.12c-7.69,12.94-4.5,23.48-5.06,35.39
				c-0.81,17.39,3.92,69.07-0.99,84.67C54.4,147.57,52.22,154.54,48.49,162.91z"/>
			<path class="st38" d="M47.02,162.14c-5.42,11.93-1.89,27.25-0.02,35.37c4.31,18.47-22.8,17.81-33.09,11.96
				c-35.26-20.06-28.07-62.15-20.68-73.4c8.04-12.22,18.6-19.04,27.29-31.73c4.34-6.35,6.65-41.48,7.47-67.38
				c0.32-10.12-3.08-17.92,9.75-32.5c6.76-7.71,34.58-3.78,25.9,10.59c-7.45,12.42-4.56,22.79-5.09,34.63
				c-0.75,17.76,3.82,69.9-0.98,84.97C53.67,146.84,50.97,153.43,47.02,162.14z"/>
			<path class="st39" d="M45.55,161.38c-5.54,11.98-1.96,27.47-0.03,35.37c4.4,18.05-21.93,17.16-31.84,11.41
				c-33.54-19.46-26.99-60.1-19.77-71.27c7.84-12.11,18.87-19.23,27.18-31.68c4.31-6.46,6.47-42.41,7.26-68.14
				c0.31-10.09-2.82-17.97,9.5-31.98c6.78-7.75,33.54-3.82,25.06,10.07c-7.25,11.88-4.63,22.1-5.12,33.87
				c-0.7,18.14,3.72,70.73-0.97,85.27C52.94,146.12,49.73,152.33,45.55,161.38z"/>
			<path class="st40" d="M44.08,160.62c-5.66,12.03-2.02,27.69-0.05,35.37c4.51,17.64-21.05,16.52-30.6,10.86
				c-31.83-18.85-25.9-58.04-18.86-69.13c7.63-12,19.14-19.44,27.07-31.63c4.27-6.56,6.29-43.33,7.05-68.91
				c0.3-10.06-2.56-18.03,9.24-31.46c6.8-7.79,32.51-3.84,24.21,9.54c-7.04,11.34-4.72,21.41-5.15,33.1
				c-0.68,18.51,3.65,71.57-0.95,85.56C52.24,145.4,48.5,151.23,44.08,160.62z"/>
			<path class="st41" d="M42.61,159.85c-5.78,12.08-2.07,27.91-0.07,35.37c4.62,17.22-20.17,15.87-29.36,10.31
				c-30.12-18.24-24.82-55.99-17.96-67c7.43-11.88,19.39-19.64,26.96-31.58c4.23-6.68,6.11-44.25,6.84-69.68
				c0.29-10.03-2.28-18.06,8.99-30.94c6.83-7.81,31.49-3.86,23.36,9.02c-6.82,10.81-4.79,20.72-5.18,32.34
				c-0.63,18.88,3.57,72.41-0.94,85.86C51.52,144.68,47.26,150.13,42.61,159.85z"/>
			<path class="st42" d="M41.14,159.09c-5.89,12.13-2.13,28.13-0.09,35.37c4.74,16.8-19.29,15.23-28.12,9.76
				c-28.41-17.61-23.74-53.93-17.05-64.86c7.22-11.77,19.64-19.86,26.85-31.52c4.19-6.79,5.94-45.17,6.63-70.45
				c0.27-10-2.02-18.11,8.73-30.42c6.85-7.84,30.47-3.88,22.51,8.49c-6.6,10.28-4.86,20.03-5.21,31.58
				c-0.59,19.25,3.48,73.24-0.92,86.16C50.81,143.96,46.03,149.03,41.14,159.09z"/>
			<path class="st43" d="M39.67,158.33c-6,12.19-2.18,28.35-0.1,35.36c4.85,16.38-18.41,14.59-26.87,9.21
				C-14,185.92-9.96,151.02-3.45,140.17c7.02-11.66,19.89-20.08,26.74-31.47c4.15-6.9,5.76-46.09,6.41-71.22
				c0.26-9.97-1.76-18.16,8.48-29.9c6.87-7.88,29.45-3.91,21.67,7.97c-6.39,9.74-4.93,19.34-5.25,30.82
				c-0.54,19.63,3.39,74.08-0.91,86.46C50.09,143.24,44.8,147.93,39.67,158.33z"/>
			<path class="st44" d="M38.2,157.56c-6.11,12.24-2.23,28.57-0.12,35.36c4.97,15.96-17.53,13.95-25.63,8.66
				c-24.99-16.33-21.57-49.82-15.24-60.59c6.82-11.55,20.13-20.3,26.64-31.42c4.11-7.02,5.58-47.02,6.2-71.98
				c0.25-9.94-1.5-18.21,8.23-29.38c6.89-7.91,28.43-3.93,20.82,7.44c-6.16,9.21-5,18.65-5.28,30.05c-0.49,20,3.29,74.91-0.89,86.76
				C49.37,142.52,43.57,146.83,38.2,157.56z"/>
			<path class="st45" d="M36.74,156.8c-6.22,12.3-2.29,28.79-0.14,35.36c5.09,15.55-16.64,13.31-24.39,8.11
				C-11.09,184.6-8.27,152.5-2.13,141.81c6.61-11.44,20.36-20.53,26.53-31.37c4.06-7.14,5.4-47.94,5.99-72.75
				c0.23-9.91-1.24-18.26,7.97-28.86c6.91-7.95,27.41-3.95,19.97,6.92c-5.94,8.68-5.07,17.96-5.31,29.29
				c-0.43,20.37,3.2,75.74-0.88,87.05C48.64,141.8,42.34,145.73,36.74,156.8z"/>
			<path class="st46" d="M35.27,156.04c-6.33,12.35-2.34,29.02-0.16,35.36c5.21,15.13-15.76,12.68-23.15,7.56
				c-21.6-14.99-19.4-45.71-13.43-56.32c6.41-11.33,20.58-20.76,26.42-31.32c4.01-7.26,5.22-48.86,5.78-73.52
				c0.22-9.88-0.99-18.32,7.72-28.34c6.93-7.98,26.39-3.97,19.12,6.39c-5.72,8.15-5.13,17.27-5.34,28.53
				c-0.38,20.74,3.11,76.58-0.87,87.35C47.92,141.07,41.11,144.63,35.27,156.04z"/>
			<path class="st47" d="M33.8,155.27c-6.43,12.41-2.39,29.24-0.17,35.35c5.33,14.71-14.88,12.05-21.9,7.01
				c-19.91-14.3-18.31-43.65-12.52-54.19c6.21-11.22,20.8-21,26.31-31.27c3.96-7.39,5.04-49.78,5.57-74.29
				c0.21-9.85-0.73-18.37,7.47-27.82c6.95-8.02,25.38-3.99,18.28,5.87c-5.49,7.62-5.2,16.58-5.37,27.77
				c-0.33,21.12,3.02,77.41-0.85,87.65C47.2,140.35,39.88,143.54,33.8,155.27z"/>
			<path class="st48" d="M32.33,154.51c-6.54,12.47-2.44,29.46-0.19,35.35c5.45,14.29-14,11.42-20.66,6.45
				c-18.23-13.59-17.23-41.6-11.62-52.05c6-11.11,21.02-21.24,26.2-31.21c3.91-7.51,4.87-50.7,5.36-75.05
				c0.2-9.82-0.47-18.43,7.21-27.3C45.6,2.65,63,6.69,56.06,16.04c-5.26,7.09-5.27,15.89-5.4,27c-0.27,21.49,2.92,78.24-0.84,87.95
				C46.48,139.63,38.66,142.44,32.33,154.51z"/>
			<path class="st49" d="M30.86,153.75c-6.64,12.52-2.49,29.68-0.21,35.35c5.58,13.87-13.12,10.8-19.42,5.9
				c-16.56-12.87-16.14-39.54-10.71-49.92c5.8-11,21.22-21.48,26.1-31.16c3.85-7.64,4.69-51.63,5.15-75.82
				c0.18-9.79-0.22-18.48,6.96-26.78c6.99-8.09,23.36-4.03,16.58,4.82c-5.03,6.57-5.33,15.2-5.44,26.24
				c-0.21,21.86,2.82,79.08-0.82,88.25C45.75,138.91,37.44,141.35,30.86,153.75z"/>
			<path class="st50" d="M29.39,152.98c-6.74,12.58-2.54,29.9-0.23,35.35c5.7,13.45-12.24,10.18-18.18,5.35
				c-14.9-12.11-15.06-37.49-9.81-47.78c5.59-10.89,21.42-21.73,25.99-31.11c3.78-7.77,4.51-52.55,4.94-76.59
				c0.17-9.76,0.04-18.54,6.7-26.26c7.01-8.12,22.35-4.04,15.73,4.29c-4.8,6.04-5.39,14.51-5.47,25.48
				c-0.15,22.24,2.73,79.91-0.81,88.54C45.03,138.19,36.21,140.25,29.39,152.98z"/>
			<path class="st51" d="M27.92,152.22c-6.84,12.64-2.59,30.12-0.24,35.35c5.84,13.03-11.36,9.57-16.93,4.8
				c-13.26-11.34-13.97-35.43-8.9-45.64c5.39-10.78,21.62-21.98,25.88-31.06c3.71-7.91,4.33-53.47,4.73-77.36
				c0.16-9.73,0.29-18.59,6.45-25.74c7.03-8.16,21.35-4.06,14.89,3.77c-4.56,5.52-5.46,13.82-5.5,24.72
				c-0.09,22.61,2.63,80.74-0.8,88.84C44.3,137.46,34.99,139.16,27.92,152.22z"/>
			<path class="st52" d="M26.45,151.46c-6.94,12.7-2.63,30.34-0.26,35.34c5.97,12.61-10.48,8.97-15.69,4.25
				c-11.63-10.53-12.89-33.38-8-43.51c5.19-10.67,21.81-22.23,25.77-31.01c3.63-8.04,4.15-54.39,4.52-78.12
				c0.15-9.7,0.55-18.65,6.2-25.22C46.04,5,59.35,9.12,53.03,16.43c-4.32,5-5.52,13.13-5.53,23.95
				c-0.03,22.98,2.52,81.57-0.78,89.14C43.57,136.74,33.77,138.06,26.45,151.46z"/>
			<path class="st53" d="M24.99,150.69c-7.04,12.76-2.68,30.55-0.28,35.34c6.1,12.18-9.61,8.38-14.45,3.7
				c-10.02-9.7-11.8-31.32-7.09-41.37c4.98-10.56,21.99-22.49,25.66-30.96c3.55-8.18,3.97-55.31,4.31-78.89
				c0.13-9.67,0.8-18.7,5.94-24.7c7.06-8.23,19.37-4.08,13.19,2.72c-4.07,4.48-5.58,12.44-5.56,23.19
				c0.04,23.36,2.42,82.4-0.77,89.44C42.84,136.01,32.56,136.97,24.99,150.69z"/>
			<path class="st54" d="M23.52,149.93c-7.14,12.83-2.72,30.77-0.3,35.34c6.24,11.76-8.76,7.8-13.21,3.15
				c-8.45-8.83-10.72-29.27-6.19-39.24c4.78-10.45,22.16-22.74,25.55-30.9c3.46-8.32,3.8-56.24,4.1-79.66
				c0.12-9.64,1.05-18.76,5.69-24.18c7.08-8.27,18.38-4.08,12.34,2.19c-3.82,3.97-5.64,11.75-5.59,22.43
				c0.1,23.73,2.31,83.23-0.75,89.74C42.11,135.29,31.34,135.88,23.52,149.93z"/>
			<path class="st55" d="M22.05,149.17c-7.24,12.89-2.76,30.99-0.31,35.34c6.39,11.33-7.92,7.24-11.96,2.6
				c-6.9-7.93-9.63-27.21-5.28-37.1c4.57-10.34,22.33-23,25.45-30.85c3.35-8.47,3.62-57.16,3.89-80.43
				c0.11-9.6,1.3-18.82,5.43-23.66c7.09-8.31,17.41-4.07,11.5,1.67c-3.56,3.46-5.68,11.06-5.63,21.67
				c0.21,24.1,2.21,84.06-0.74,90.03C41.37,134.56,30.12,134.79,22.05,149.17z"/>
			<path class="st56" d="M20.58,148.4c-7.31,12.96-2.81,31.2-0.33,35.33c6.53,10.9-7.12,6.71-10.72,2.05
				c-5.41-7-8.55-25.16-4.37-34.97c4.37-10.22,22.5-23.26,25.34-30.8c3.24-8.61,3.44-58.08,3.68-81.19
				c0.09-9.57,1.56-18.88,5.18-23.14c7.1-8.35,16.44-4.05,10.65,1.14c-3.3,2.96-5.75,10.37-5.66,20.9
				c0.27,24.48,2.09,84.88-0.72,90.33C40.63,133.83,28.93,133.71,20.58,148.4z"/>
			<path class="st57" d="M19.11,147.64c-7.42,13.02-2.85,31.42-0.35,35.33c6.68,10.46-6.38,6.21-9.48,1.5
				c-3.98-6.05-7.46-23.1-3.47-32.83c4.17-10.11,22.66-23.51,25.23-30.75c3.11-8.76,3.26-59,3.47-81.96
				c0.08-9.54,1.8-18.94,4.93-22.62c7.09-8.41,15.49-4,9.8,0.62c-3.04,2.47-5.82,9.68-5.69,20.14c0.33,24.85,1.98,85.71-0.71,90.63
				C39.89,133.1,27.71,132.62,19.11,147.64z"/>
			<path class="st58" d="M17.64,146.88c-7.52,13.08-2.88,31.63-0.37,35.33c6.84,10.02-5.77,5.75-8.24,0.95
				c-2.64-5.11-6.38-21.05-2.56-30.7c3.96-10,22.81-23.77,25.12-30.7c2.98-8.92,3.08-59.92,3.26-82.73c0.07-9.51,2.06-19,4.67-22.1
				c7.11-8.44,14.55-3.93,8.96,0.09c-2.77,1.99-5.88,8.99-5.72,19.38c0.38,25.22,1.86,86.52-0.7,90.93
				C39.14,132.36,26.48,131.52,17.64,146.88z"/>
		</g>
	</g>
	<path class="st59" d="M69.49,117.34V23.37c0-11.38-9.23-20.6-20.61-20.6c-11.39,0-20.61,9.22-20.61,20.6v93.99
		C11.46,125.14-0.2,142.15-0.2,161.9c0,27.1,21.97,49.08,49.08,49.08c27.11,0,49.08-21.98,49.08-49.08
		C97.96,142.15,86.3,125.14,69.49,117.34z M48.88,199.81c-20.91,0-37.92-17.01-37.92-37.92c0-17.65,12.13-32.47,28.47-36.68V75.65
		V23.37c0-5.2,4.24-9.44,9.45-9.44c5.21,0,9.44,4.24,9.44,9.44v52.28v49.57c16.34,4.21,28.47,19.03,28.47,36.68
		C86.8,182.8,69.79,199.81,48.88,199.81z"/>
	<path class="st60" d="M70.51,118.37V24.4c0-11.38-9.23-20.6-20.61-20.6s-20.61,9.22-20.61,20.6v93.97
		c-16.81,7.79-28.47,24.79-28.47,44.55c0,27.1,21.98,49.07,49.08,49.07c27.11,0,49.08-21.96,49.08-49.07
		C98.98,143.16,87.32,126.15,70.51,118.37z M49.9,200.82c-20.91,0-37.92-17.01-37.92-37.9c0-17.65,12.13-32.47,28.47-36.68V76.66
		V24.4c0-5.22,4.24-9.44,9.44-9.44s9.44,4.22,9.44,9.44v52.26v49.59c16.34,4.21,28.47,19.03,28.47,36.68
		C87.82,183.81,70.81,200.82,49.9,200.82z"/>
	<g>
		<rect x="61.29" y="51.62" class="st61" width="9.22" height="5.64"/>
		<rect x="61.29" y="33.11" class="st61" width="9.22" height="5.64"/>
		<rect x="61.29" y="70.14" class="st61" width="9.22" height="5.64"/>
		<rect x="61.29" y="88.65" class="st61" width="9.22" height="5.64"/>
		<rect x="61.29" y="107.17" class="st61" width="9.22" height="5.64"/>
	</g>
</g>
<g class="st0">
	<g>
		<path class="st1" d="M25.73,165.16C24.77,142.47,41.41,5.69,63.41,5.69c26.98,0,44.88,66.24,50.24,83.22
			c7.52,23.81,21.89,26.21,33.03,38.42c18.14,19.87,37.21,60.72,14.87,91.89c-20.64,28.81-71.91,36.6-111.47,10.69
			C14.57,206.65,26.26,178.35,25.73,165.16z"/>
		<path class="st2" d="M63.44,6.91c26.41,0,43.54,65.95,49.01,82.8c7.57,23.36,21.71,25.91,32.65,37.98
			c17.8,19.65,36.34,59.69,14.57,90.35c-20.09,28.25-70.24,36.43-109.15,11.24c-35.09-22.64-23.88-50.67-24.39-63.64
			C25.19,143.36,41.95,6.91,63.44,6.91z"/>
		<path class="st3" d="M63.47,8.13c25.84,0,42.21,65.67,47.77,82.39c7.62,22.91,21.54,25.61,32.27,37.55
			c17.47,19.42,35.46,58.66,14.26,88.81c-19.53,27.69-68.57,36.25-106.82,11.8C16.28,206.67,27,178.89,26.51,166.15
			C25.61,144.26,42.48,8.13,63.47,8.13z"/>
		<path class="st4" d="M63.5,9.35c25.27,0,40.88,65.38,46.54,81.97c7.67,22.45,21.37,25.31,31.89,37.11
			c17.13,19.2,34.59,57.63,13.95,87.27c-18.98,27.12-66.84,35.98-104.5,12.35c-34.21-21.47-24.02-48.9-24.49-61.42
			C26.03,145.15,43.02,9.35,63.5,9.35z"/>
		<path class="st5" d="M63.53,10.57c24.7,0,39.54,65.09,45.31,81.56c7.71,22,21.2,25.01,31.52,36.68
			c16.79,18.98,33.71,56.6,13.65,85.74c-18.42,26.56-65.16,35.78-102.17,12.91c-33.77-20.87-24.08-48.02-24.54-60.3
			C26.45,146.04,43.55,10.57,63.53,10.57z"/>
		<path class="st6" d="M63.56,11.79c24.13,0,38.2,64.8,44.08,81.14c7.76,21.55,21.03,24.71,31.14,36.24
			c16.46,18.76,32.9,55.61,13.34,84.2c-17.81,26.03-63.47,35.58-99.85,13.46c-33.34-20.27-24.15-47.13-24.59-59.19
			C26.88,146.93,44.09,11.79,63.56,11.79z"/>
		<path class="st7" d="M63.59,13.01c23.56,0,36.86,64.52,42.85,80.73c7.79,21.1,20.85,24.41,30.76,35.8
			c16.12,18.53,32.04,54.59,13.03,82.66c-17.25,25.48-61.79,35.37-97.52,14.02c-32.91-19.67-24.22-46.25-24.64-58.08
			C27.3,147.82,44.62,13.01,63.59,13.01z"/>
		<path class="st8" d="M63.62,14.23c22.99,0,35.52,64.23,41.62,80.31c7.83,20.65,20.68,24.11,30.38,35.37
			c15.79,18.31,31.17,53.57,12.73,81.12c-16.69,24.92-60.11,35.17-95.2,14.57c-32.48-19.07-24.29-45.36-24.69-56.96
			C27.72,148.72,45.16,14.23,63.62,14.23z"/>
		<path class="st9" d="M63.65,15.44c22.42,0,34.18,63.94,40.39,79.9c7.86,20.2,20.51,23.81,30,34.93
			c15.45,18.09,30.31,52.55,12.42,79.58c-16.12,24.36-58.42,34.97-92.87,15.12c-32.05-18.47-24.35-44.48-24.74-55.85
			C28.14,149.61,45.69,15.44,63.65,15.44z"/>
		<path class="st10" d="M63.68,16.66c21.85,0,32.84,63.65,39.16,79.48c7.89,19.75,20.34,23.51,29.63,34.49
			c15.11,17.87,29.45,51.52,12.11,78.04c-15.56,23.8-56.74,34.77-90.55,15.68c-31.63-17.87-24.42-43.59-24.79-54.74
			C28.56,150.5,46.23,16.66,63.68,16.66z"/>
		<path class="st11" d="M63.71,17.88c21.28,0,31.49,63.36,37.93,79.07c7.92,19.3,20.16,23.21,29.25,34.06
			c14.78,17.64,28.58,50.5,11.81,76.5c-15,23.24-55.07,34.58-88.22,16.23c-31.2-17.26-24.49-42.71-24.84-53.62
			C28.98,151.39,46.76,17.88,63.71,17.88z"/>
		<path class="st12" d="M63.74,19.1c20.71,0,30.14,63.08,36.7,78.65c7.94,18.85,19.99,22.9,28.87,33.62
			c14.44,17.42,27.72,49.48,11.5,74.96c-14.43,22.68-53.39,34.38-85.9,16.79c-30.78-16.66-24.56-41.82-24.89-52.51
			C29.41,152.28,47.3,19.1,63.74,19.1z"/>
		<path class="st13" d="M63.77,20.32c20.14,0,28.79,62.79,35.47,78.24c7.96,18.4,19.82,22.6,28.49,33.19
			c14.1,17.2,26.85,48.45,11.19,73.42c-13.87,22.12-51.71,34.19-83.57,17.34C25,206.46,30.73,181.57,30.41,171.12
			C29.83,153.18,47.83,20.32,63.77,20.32z"/>
		<path class="st14" d="M63.8,21.54c19.57,0,27.44,62.51,34.24,77.83c7.98,17.96,19.65,22.3,28.11,32.75
			c13.77,16.98,25.99,47.43,10.89,71.89c-13.31,21.56-50.04,34-81.25,17.89c-29.93-15.45-24.69-40.05-24.99-50.28
			C30.25,154.07,48.37,21.54,63.8,21.54z"/>
		<path class="st15" d="M63.83,22.76c19,0,26.08,62.22,33.01,77.41c7.99,17.51,19.47,22,27.73,32.31
			c13.43,16.75,25.12,46.4,10.58,70.35c-12.75,21-48.37,33.81-78.92,18.45c-29.51-14.84-24.76-39.17-25.04-49.17
			C30.67,154.96,48.9,22.76,63.83,22.76z"/>
		<path class="st16" d="M63.86,23.98c18.43,0,24.73,61.94,31.78,77c8,17.07,19.3,21.7,27.36,31.88
			c13.1,16.53,24.25,45.37,10.27,68.81c-12.19,20.44-46.7,33.62-76.6,19c-29.09-14.22-24.83-38.28-25.09-48.05
			C31.09,155.85,49.44,23.98,63.86,23.98z"/>
		<path class="st17" d="M63.89,25.2c17.86,0,23.37,61.65,30.55,76.58c8,16.62,19.13,21.4,26.98,31.44
			c12.76,16.31,23.39,44.34,9.97,67.27c-11.63,19.88-45.03,33.44-74.27,19.56c-28.68-13.61-24.9-37.4-25.14-46.94
			C31.52,156.74,49.97,25.2,63.89,25.2z"/>
		<path class="st18" d="M63.92,26.42c17.29,0,22,61.37,29.32,76.17c8.01,16.18,18.96,21.1,26.6,31.01
			c12.42,16.09,22.52,43.32,9.66,65.73c-11.08,19.31-43.36,33.25-71.94,20.11c-28.26-13-24.96-36.51-25.19-45.83
			C31.94,157.64,50.51,26.42,63.92,26.42z"/>
		<path class="st19" d="M63.95,27.64c16.72,0,20.64,61.09,28.09,75.75c8.01,15.74,18.78,20.8,26.22,30.57
			c12.09,15.86,21.65,42.29,9.35,64.19c-10.52,18.75-41.7,33.07-69.62,20.66c-27.85-12.38-25.03-35.63-25.24-44.71
			C32.36,158.53,51.04,27.64,63.95,27.64z"/>
		<path class="st20" d="M63.98,28.85c16.15,0,19.27,60.81,26.86,75.34c8,15.31,18.61,20.5,25.84,30.13
			c11.75,15.64,20.77,41.26,9.05,62.65c-9.96,18.18-40.03,32.9-67.29,21.22c-27.44-11.76-25.1-34.74-25.29-43.6
			C32.78,159.42,51.58,28.85,63.98,28.85z"/>
		<path class="st21" d="M64.01,30.07c15.58,0,17.9,60.53,25.63,74.92c7.99,14.87,18.44,20.2,25.47,29.7
			c11.42,15.42,19.9,40.22,8.74,61.11c-9.41,17.62-38.37,32.73-64.97,21.77c-27.03-11.13-25.17-33.86-25.34-42.49
			C33.2,160.31,52.11,30.07,64.01,30.07z"/>
		<path class="st22" d="M64.04,31.29c15.01,0,16.52,60.26,24.4,74.51c7.98,14.43,18.27,19.89,25.09,29.26
			c11.08,15.2,19.02,39.19,8.44,59.58c-8.86,17.05-36.71,32.56-62.64,22.33c-26.62-10.5-25.23-32.97-25.39-41.37
			C33.63,161.2,52.65,31.29,64.04,31.29z"/>
		<path class="st23" d="M64.07,32.51c14.44,0,15.14,59.98,23.17,74.09c7.97,14,18.09,19.59,24.71,28.82
			c10.74,14.97,18.15,38.16,8.13,58.04c-8.31,16.48-35.05,32.39-60.32,22.88c-26.21-9.87-25.3-32.09-25.44-40.26
			C34.05,162.1,53.18,32.51,64.07,32.51z"/>
		<path class="st24" d="M64.1,33.73c13.87,0,13.76,59.71,21.94,73.68c7.95,13.57,17.92,19.29,24.33,28.39
			c10.41,14.75,17.27,37.12,7.82,56.5c-7.76,15.91-33.4,32.23-57.99,23.43c-25.8-9.23-25.37-31.2-25.49-39.15
			C34.47,162.99,53.72,33.73,64.1,33.73z"/>
		<path class="st25" d="M64.13,34.95c13.3,0,12.37,59.44,20.71,73.26c7.93,13.14,17.75,18.99,23.95,27.95
			c10.07,14.53,16.39,36.09,7.52,54.96c-7.21,15.34-31.74,32.08-55.67,23.99c-25.4-8.59-25.44-30.32-25.54-38.03
			C34.89,163.88,54.25,34.95,64.13,34.95z"/>
		<path class="st26" d="M64.16,36.17c12.73,0,10.98,59.18,19.48,72.85c7.91,12.72,17.58,18.69,23.57,27.52
			c9.73,14.31,15.5,35.05,7.21,53.42c-6.67,14.77-30.09,31.93-53.34,24.54c-25-7.94-25.5-29.43-25.59-36.92
			C35.31,164.77,54.79,36.17,64.16,36.17z"/>
		<path class="st27" d="M64.18,37.39c12.16,0,9.59,58.92,18.25,72.43c7.88,12.3,17.4,18.39,23.2,27.08
			c9.4,14.08,14.61,34.01,6.9,51.88c-6.13,14.2-28.43,31.79-51.02,25.1c-24.6-7.28-25.57-28.54-25.64-35.81
			C35.73,165.66,55.32,37.39,64.18,37.39z"/>
		<path class="st28" d="M64.21,38.61c11.59,0,8.19,58.66,17.02,72.02c7.85,11.88,17.23,18.09,22.82,26.64
			c9.06,13.86,13.72,32.97,6.6,50.34c-5.59,13.63-26.78,31.65-48.69,25.65c-24.2-6.62-25.64-27.66-25.69-34.69
			C36.16,166.56,55.86,38.61,64.21,38.61z"/>
		<path class="st29" d="M64.24,39.83c11.02,0,6.78,58.4,15.79,71.6c7.82,11.46,17.06,17.79,22.44,26.21
			c8.73,13.64,12.82,31.93,6.29,48.8c-5.05,13.06-25.13,31.52-46.37,26.2c-23.8-5.95-25.71-26.77-25.74-33.58
			C36.58,167.45,56.39,39.83,64.24,39.83z"/>
		<path class="st30" d="M64.27,41.05c10.45,0,5.37,58.16,14.56,71.19c7.79,11.05,16.89,17.49,22.06,25.77
			c8.39,13.42,11.92,30.89,5.98,47.26c-4.52,12.48-23.47,31.39-44.04,26.76c-23.4-5.27-25.77-25.89-25.8-32.47
			C37,168.34,56.92,41.05,64.27,41.05z"/>
		<path class="st31" d="M64.3,42.27c9.88,0,3.96,57.91,13.33,70.77c7.75,10.64,16.71,17.19,21.68,25.34
			c8.05,13.19,11.01,29.84,5.68,45.73c-4,11.91-21.82,31.27-41.72,27.31c-23-4.58-25.84-25-25.85-31.35
			C37.42,169.23,57.46,42.27,64.3,42.27z"/>
		<path class="st32" d="M64.33,43.48c9.31,0,2.54,57.68,12.1,70.36c7.72,10.23,16.54,16.89,21.3,24.9
			c7.72,12.97,10.1,28.8,5.37,44.19c-3.47,11.33-20.17,31.17-39.39,27.87c-22.6-3.87-25.91-24.12-25.9-30.24
			C37.84,170.12,57.99,43.48,64.33,43.48z"/>
	</g>
	<path class="st62" d="M50.07,153.99c-5.21,0-9.45-4.22-9.45-9.44V24.4c0-5.22,4.24-9.44,9.45-9.44c5.21,0,9.44,4.22,9.44,9.44
		v120.16C59.52,149.77,55.28,153.99,50.07,153.99z"/>
	
		<linearGradient id="SVGID_00000103230814329075640310000006124137049173472914_" gradientUnits="userSpaceOnUse" x1="28.4583" y1="135.3496" x2="77.717" y2="184.6084">
		<stop  offset="0" style="stop-color:#076BBA"/>
		<stop  offset="1" style="stop-color:#0060AB"/>
	</linearGradient>
	<path style="display:inline;fill:url(#SVGID_00000103230814329075640310000006124137049173472914_);" d="M59.52,126.24v-19.38
		H40.63v19.38c-16.34,4.21-28.47,19.03-28.47,36.68c0,20.89,17.01,37.9,37.92,37.9c20.91,0,37.92-17.01,37.92-37.9
		C87.99,145.27,75.86,130.45,59.52,126.24z"/>
	<g>
		<defs>
			<path id="SVGID_00000067230734909695183020000001920467170086601639_" d="M59.52,126.24V76.66V24.4c0-5.22-4.24-9.44-9.44-9.44
				c-5.21,0-9.45,4.22-9.45,9.44v52.26v49.59c-16.34,4.21-28.47,19.03-28.47,36.68c0,20.89,17.01,37.9,37.92,37.9
				c20.91,0,37.92-17.01,37.92-37.9C87.99,145.27,75.86,130.45,59.52,126.24z"/>
		</defs>
		<clipPath id="SVGID_00000176036805117081252230000000204953235744488373_" class="st35">
			<use xlink:href="#SVGID_00000067230734909695183020000001920467170086601639_"  style="overflow:visible;"/>
		</clipPath>
		<g style="display:inline;clip-path:url(#SVGID_00000176036805117081252230000000204953235744488373_);">
			<path class="st37" d="M48.66,162.91c-5.29,11.88-1.85,27.03,0,35.38c4.18,18.89-23.69,18.46-34.34,12.51
				c-36.97-20.65-29.16-64.21-21.58-75.54c8.24-12.33,18.33-18.84,27.4-31.78c4.37-6.24,6.83-40.56,7.68-66.61
				C28.16,26.71,24.49,19,37.82,3.84c6.75-7.68,35.58-3.78,26.75,11.12c-7.69,12.94-4.5,23.48-5.05,35.39
				c-0.81,17.39,3.92,69.07-0.99,84.67C54.57,147.57,52.39,154.54,48.66,162.91z"/>
			<path class="st38" d="M47.2,162.14c-5.4,11.94-1.9,27.25-0.02,35.37c4.3,18.47-22.81,17.81-33.09,11.96
				c-35.25-20.06-28.07-62.15-20.67-73.4c8.04-12.22,18.61-19.03,27.29-31.73c4.34-6.35,6.65-41.48,7.47-67.38
				c0.32-10.12-3.08-17.92,9.74-32.5c6.76-7.71,34.58-3.78,25.9,10.59c-7.45,12.42-4.56,22.79-5.09,34.63
				c-0.75,17.76,3.82,69.9-0.98,84.97C53.84,146.84,51.16,153.44,47.2,162.14z"/>
			<path class="st39" d="M45.73,161.38c-5.54,11.98-1.95,27.46-0.04,35.37c4.43,18.04-21.93,17.16-31.85,11.41
				c-33.54-19.46-26.99-60.1-19.77-71.27c7.84-12.11,18.88-19.23,27.18-31.68c4.3-6.45,6.47-42.41,7.26-68.14
				C28.82,26.97,25.69,19.1,38,5.09c6.78-7.75,33.54-3.82,25.06,10.07c-7.25,11.87-4.63,22.1-5.12,33.87
				c-0.7,18.14,3.72,70.73-0.97,85.27C53.12,146.12,49.91,152.33,45.73,161.38z"/>
			<path class="st40" d="M44.26,160.62c-5.66,12.03-2.02,27.69-0.05,35.37c4.51,17.63-21.05,16.52-30.61,10.86
				c-31.82-18.85-25.9-58.04-18.86-69.13c7.63-12,19.14-19.43,27.07-31.63c4.27-6.56,6.3-43.33,7.05-68.91
				c0.29-10.06-2.56-18.03,9.23-31.46c6.8-7.79,32.51-3.84,24.21,9.54c-7.04,11.34-4.72,21.41-5.15,33.1
				c-0.68,18.51,3.66,71.57-0.95,85.56C52.42,145.4,48.67,151.23,44.26,160.62z"/>
			<path class="st41" d="M42.79,159.85c-5.78,12.08-2.07,27.91-0.07,35.37c4.62,17.22-20.18,15.87-29.37,10.31
				c-30.11-18.24-24.82-55.99-17.96-67c7.43-11.88,19.4-19.64,26.96-31.58c4.23-6.67,6.12-44.25,6.84-69.68
				c0.28-10.03-2.31-18.08,8.98-30.94c6.82-7.82,31.49-3.86,23.36,9.02c-6.82,10.81-4.79,20.72-5.18,32.34
				c-0.63,18.88,3.57,72.41-0.94,85.86C51.7,144.68,47.44,150.13,42.79,159.85z"/>
			<path class="st42" d="M41.32,159.09c-5.89,12.14-2.13,28.13-0.09,35.37c4.74,16.8-19.29,15.23-28.12,9.76
				c-28.4-17.61-23.74-53.93-17.05-64.86c7.22-11.77,19.65-19.86,26.86-31.52c4.19-6.79,5.94-45.17,6.63-70.45
				c0.27-10-2.02-18.11,8.73-30.42c6.85-7.84,30.47-3.88,22.52,8.49c-6.6,10.28-4.86,20.03-5.21,31.58
				c-0.59,19.25,3.48,73.24-0.92,86.16C50.98,143.96,46.21,149.03,41.32,159.09z"/>
			<path class="st43" d="M39.85,158.33c-6,12.19-2.18,28.35-0.11,35.36c4.85,16.38-18.41,14.59-26.88,9.21
				c-26.69-16.97-22.65-51.88-16.14-62.73c7.02-11.66,19.89-20.07,26.75-31.47c4.15-6.9,5.76-46.09,6.42-71.22
				c0.26-9.97-1.76-18.16,8.47-29.9c6.87-7.88,29.45-3.91,21.67,7.97c-6.38,9.74-4.93,19.34-5.25,30.82
				c-0.54,19.63,3.39,74.08-0.91,86.46C50.26,143.24,44.97,147.93,39.85,158.33z"/>
			<path class="st44" d="M38.38,157.56c-6.11,12.24-2.24,28.57-0.12,35.36c4.97,15.96-17.53,13.95-25.64,8.66
				c-24.99-16.33-21.57-49.82-15.24-60.59c6.81-11.55,20.13-20.3,26.64-31.42c4.11-7.02,5.58-47.02,6.21-71.98
				c0.24-9.94-1.5-18.21,8.22-29.38c6.89-7.91,28.43-3.93,20.82,7.44c-6.16,9.21-5,18.65-5.28,30.05c-0.49,20,3.3,74.91-0.89,86.76
				C49.54,142.52,43.74,146.83,38.38,157.56z"/>
			<path class="st45" d="M36.92,156.8c-6.22,12.3-2.29,28.79-0.14,35.36c5.09,15.54-16.65,13.32-24.39,8.11
				C-10.91,184.6-8.1,152.5-1.95,141.81c6.61-11.44,20.36-20.53,26.53-31.37c4.06-7.14,5.41-47.94,5.99-72.75
				c0.23-9.91-1.25-18.27,7.97-28.86c6.91-7.95,27.41-3.95,19.97,6.92c-5.94,8.68-5.07,17.96-5.31,29.29
				c-0.44,20.37,3.2,75.74-0.88,87.05C48.82,141.8,42.51,145.73,36.92,156.8z"/>
			<path class="st46" d="M35.45,156.04c-6.33,12.35-2.34,29.01-0.16,35.36c5.21,15.13-15.77,12.68-23.15,7.56
				c-21.6-14.99-19.4-45.71-13.43-56.32c6.41-11.33,20.59-20.76,26.42-31.32c4.01-7.26,5.23-48.86,5.78-73.52
				c0.22-9.88-0.99-18.32,7.71-28.34c6.93-7.98,26.4-3.97,19.13,6.39c-5.72,8.15-5.13,17.27-5.34,28.53
				c-0.38,20.74,3.11,76.58-0.87,87.35C48.09,141.07,41.29,144.64,35.45,156.04z"/>
			<path class="st47" d="M33.98,155.27c-6.43,12.41-2.39,29.24-0.18,35.35c5.33,14.71-14.88,12.05-21.91,7.01
				c-19.91-14.3-18.31-43.65-12.52-54.19c6.2-11.22,20.81-21,26.31-31.27c3.96-7.39,5.05-49.78,5.57-74.29
				c0.21-9.85-0.73-18.37,7.46-27.82C45.67,2.06,64.1,6.09,57,15.94c-5.49,7.62-5.2,16.58-5.37,27.77
				c-0.33,21.12,3.02,77.41-0.85,87.65C47.37,140.35,40.06,143.54,33.98,155.27z"/>
			<path class="st48" d="M32.51,154.51c-6.54,12.47-2.45,29.46-0.2,35.35c5.45,14.29-14,11.42-20.67,6.45
				c-18.23-13.59-17.23-41.6-11.61-52.05c6-11.11,21.02-21.24,26.2-31.21c3.9-7.51,4.87-50.7,5.36-75.05
				c0.2-9.82-0.47-18.43,7.21-27.3c6.97-8.05,24.37-4.01,17.43,5.34c-5.26,7.09-5.27,15.89-5.41,27
				c-0.27,21.49,2.92,78.24-0.84,87.95C46.65,139.63,38.84,142.44,32.51,154.51z"/>
			<path class="st49" d="M31.04,153.75c-6.64,12.53-2.5,29.68-0.21,35.35c5.58,13.87-13.12,10.8-19.42,5.9
				C-5.15,182.14-4.74,155.46,0.7,145.09c5.79-11,21.22-21.48,26.09-31.16c3.84-7.64,4.69-51.63,5.15-75.82
				c0.18-9.79-0.22-18.48,6.95-26.78c6.99-8.09,23.36-4.03,16.59,4.82c-5.03,6.57-5.33,15.2-5.44,26.24
				c-0.21,21.86,2.83,79.08-0.82,88.25C45.92,138.91,37.61,141.35,31.04,153.75z"/>
			<path class="st50" d="M29.57,152.98c-6.74,12.59-2.54,29.9-0.23,35.35c5.71,13.45-12.24,10.18-18.18,5.35
				c-14.9-12.11-15.06-37.49-9.8-47.78c5.59-10.89,21.42-21.73,25.98-31.11c3.78-7.77,4.51-52.55,4.94-76.59
				c0.17-9.76,0.04-18.54,6.7-26.26c7.01-8.12,22.36-4.04,15.74,4.29c-4.8,6.04-5.39,14.51-5.47,25.48
				c-0.16,22.24,2.73,79.91-0.81,88.54C45.2,138.18,36.39,140.25,29.57,152.98z"/>
			<path class="st51" d="M28.1,152.22c-6.84,12.65-2.59,30.12-0.25,35.35c5.84,13.03-11.36,9.57-16.94,4.8
				c-13.25-11.34-13.97-35.43-8.9-45.64c5.38-10.78,21.62-21.98,25.88-31.06c3.71-7.9,4.34-53.47,4.73-77.36
				c0.16-9.73,0.29-18.59,6.45-25.74c7.03-8.16,21.35-4.06,14.89,3.77c-4.56,5.52-5.46,13.82-5.5,24.72
				c-0.09,22.61,2.63,80.74-0.8,88.84C44.47,137.46,35.17,139.16,28.1,152.22z"/>
			<path class="st52" d="M26.64,151.46c-6.94,12.71-2.64,30.34-0.27,35.34c5.97,12.61-10.48,8.97-15.69,4.25
				c-11.63-10.53-12.89-33.38-7.99-43.51c5.18-10.67,21.8-22.23,25.77-31.01c3.63-8.04,4.16-54.39,4.52-78.12
				c0.15-9.7,0.55-18.65,6.19-25.22C46.21,5,59.52,9.12,53.21,16.43c-4.32,5-5.52,13.13-5.54,23.95
				c-0.03,22.98,2.53,81.57-0.78,89.14C43.74,136.74,33.95,138.07,26.64,151.46z"/>
			<path class="st53" d="M25.17,150.69c-7.04,12.77-2.68,30.55-0.29,35.34c6.1,12.18-9.62,8.38-14.45,3.7
				c-10.02-9.7-11.8-31.32-7.08-41.37c4.97-10.56,21.98-22.49,25.66-30.96c3.55-8.18,3.98-55.31,4.31-78.89
				c0.14-9.67,0.8-18.71,5.94-24.7c7.06-8.23,19.37-4.08,13.2,2.72c-4.07,4.48-5.58,12.44-5.57,23.19
				c0.03,23.36,2.42,82.4-0.77,89.44C43.01,136.01,32.73,136.97,25.17,150.69z"/>
			<path class="st54" d="M23.7,149.93c-7.14,12.83-2.73,30.77-0.3,35.34c6.24,11.76-8.76,7.8-13.21,3.15
				c-8.44-8.83-10.72-29.27-6.18-39.24c4.77-10.45,22.16-22.74,25.55-30.9c3.46-8.32,3.8-56.24,4.1-79.66
				c0.12-9.64,1.05-18.76,5.69-24.18c7.07-8.27,18.38-4.08,12.35,2.19c-3.82,3.97-5.64,11.75-5.6,22.43
				c0.1,23.73,2.32,83.23-0.75,89.74C42.28,135.29,31.52,135.88,23.7,149.93z"/>
			<path class="st55" d="M22.23,149.17c-7.24,12.89-2.77,30.99-0.32,35.34c6.39,11.33-7.92,7.24-11.97,2.6
				c-6.9-7.93-9.63-27.21-5.27-37.1c4.57-10.34,22.33-23,25.44-30.85c3.35-8.47,3.62-57.16,3.89-80.43
				c0.11-9.6,1.3-18.82,5.43-23.66c7.09-8.31,17.41-4.07,11.5,1.67c-3.56,3.46-5.68,11.06-5.63,21.67
				c0.21,24.1,2.21,84.06-0.74,90.03C41.54,134.56,30.3,134.79,22.23,149.17z"/>
			<path class="st56" d="M20.76,148.4c-7.31,12.96-2.81,31.2-0.34,35.33c6.53,10.9-7.12,6.71-10.72,2.05
				c-5.41-7-8.55-25.16-4.37-34.97c4.36-10.22,22.49-23.26,25.33-30.8c3.24-8.61,3.45-58.08,3.68-81.19
				c0.1-9.57,1.56-18.88,5.18-23.14c7.1-8.35,16.44-4.05,10.66,1.14c-3.3,2.96-5.75,10.37-5.66,20.9
				c0.27,24.48,2.1,84.88-0.72,90.33C40.81,133.83,29.11,133.71,20.76,148.4z"/>
			<path class="st57" d="M19.29,147.64c-7.42,13.02-2.86,31.42-0.36,35.33c6.68,10.46-6.38,6.21-9.48,1.5
				c-3.98-6.05-7.46-23.1-3.46-32.83c4.16-10.11,22.65-23.51,25.22-30.75c3.11-8.76,3.27-59,3.47-81.96
				c0.09-9.54,1.8-18.94,4.93-22.62c7.09-8.41,15.49-4,9.81,0.62c-3.04,2.47-5.82,9.68-5.7,20.14c0.33,24.85,1.98,85.7-0.71,90.63
				C40.06,133.1,27.88,132.62,19.29,147.64z"/>
			<path class="st58" d="M17.82,146.88c-7.53,13.08-2.89,31.63-0.37,35.33c6.84,10.02-5.77,5.75-8.24,0.95
				c-2.64-5.11-6.38-21.05-2.55-30.7c3.95-10,22.8-23.77,25.11-30.7c2.97-8.92,3.09-59.92,3.26-82.73c0.08-9.51,2.06-19,4.67-22.1
				c7.11-8.44,14.55-3.93,8.96,0.09c-2.77,1.99-5.88,8.99-5.73,19.38c0.38,25.22,1.87,86.52-0.7,90.93
				C39.31,132.36,26.66,131.52,17.82,146.88z"/>
		</g>
	</g>
	<path class="st65" d="M69.66,117.34V23.37c0-11.38-9.23-20.6-20.61-20.6c-11.38,0-20.61,9.22-20.61,20.6v93.99
		c-16.81,7.79-28.47,24.79-28.47,44.54c0,27.1,21.98,49.08,49.08,49.08c27.11,0,49.08-21.98,49.08-49.08
		C98.14,142.15,86.47,125.14,69.66,117.34z M49.05,199.81c-20.91,0-37.92-17.01-37.92-37.92c0-17.65,12.13-32.47,28.47-36.68V75.65
		V23.37c0-5.2,4.24-9.44,9.44-9.44s9.45,4.24,9.45,9.44v52.28v49.57c16.34,4.21,28.47,19.03,28.47,36.68
		C86.97,182.8,69.96,199.81,49.05,199.81z"/>
	<path class="st66" d="M70.68,118.37V24.4c0-11.38-9.22-20.6-20.61-20.6c-11.38,0-20.61,9.22-20.61,20.6v93.97
		c-16.81,7.79-28.47,24.79-28.47,44.55c0,27.1,21.98,49.07,49.08,49.07c27.11,0,49.08-21.96,49.08-49.07
		C99.15,143.16,87.49,126.15,70.68,118.37z M50.07,200.82c-20.91,0-37.92-17.01-37.92-37.9c0-17.65,12.13-32.47,28.47-36.68V76.66
		V24.4c0-5.22,4.24-9.44,9.45-9.44c5.21,0,9.44,4.22,9.44,9.44v52.26v49.59c16.34,4.21,28.47,19.03,28.47,36.68
		C87.99,183.81,70.98,200.82,50.07,200.82z"/>
	<g class="st35">
		<rect x="61.47" y="51.62" class="st61" width="9.22" height="5.64"/>
		<rect x="61.47" y="33.11" class="st61" width="9.22" height="5.64"/>
		<rect x="61.47" y="70.14" class="st61" width="9.22" height="5.64"/>
		<rect x="61.47" y="88.65" class="st61" width="9.22" height="5.64"/>
		<rect x="61.47" y="107.17" class="st61" width="9.22" height="5.64"/>
	</g>
</g>
</svg>
